<mxfile host="app.diagrams.net" agent="Mozilla/5.0 (Windows NT 10.0; Win64; x64) AppleWebKit/537.36 (KHTML, like Gecko) Chrome/127.0.0.0 Safari/537.36" version="24.7.7">
  <diagram name="Page-1" id="XR_sAPpowPh_m-RyvFGj">
    <mxGraphModel dx="2585" dy="1070" grid="1" gridSize="10" guides="1" tooltips="1" connect="1" arrows="1" fold="1" page="1" pageScale="1" pageWidth="850" pageHeight="1100" math="0" shadow="0">
      <root>
        <mxCell id="0" />
        <mxCell id="1" parent="0" />
        <mxCell id="2tXrm1ku4In5ayjomrIE-94" style="edgeStyle=orthogonalEdgeStyle;rounded=0;orthogonalLoop=1;jettySize=auto;html=1;exitX=0.5;exitY=0;exitDx=0;exitDy=0;entryX=0.5;entryY=1;entryDx=0;entryDy=0;" parent="1" source="D4Uwa5f9jRaThYVNO9h9-1" target="2tXrm1ku4In5ayjomrIE-8" edge="1">
          <mxGeometry relative="1" as="geometry">
            <mxPoint x="220.33333333333337" y="229.9999999999999" as="targetPoint" />
          </mxGeometry>
        </mxCell>
        <mxCell id="D4Uwa5f9jRaThYVNO9h9-1" value="" style="rounded=0;whiteSpace=wrap;html=1;" parent="1" vertex="1">
          <mxGeometry x="160" y="490" width="120" height="60" as="geometry" />
        </mxCell>
        <mxCell id="D4Uwa5f9jRaThYVNO9h9-2" value="" style="rounded=0;whiteSpace=wrap;html=1;" parent="1" vertex="1">
          <mxGeometry x="150" y="870" width="120" height="60" as="geometry" />
        </mxCell>
        <mxCell id="D4Uwa5f9jRaThYVNO9h9-3" value="" style="rounded=0;whiteSpace=wrap;html=1;" parent="1" vertex="1">
          <mxGeometry x="600" y="880" width="120" height="60" as="geometry" />
        </mxCell>
        <mxCell id="2tXrm1ku4In5ayjomrIE-13" style="edgeStyle=orthogonalEdgeStyle;rounded=0;orthogonalLoop=1;jettySize=auto;html=1;exitX=0;exitY=0.5;exitDx=0;exitDy=0;entryX=1;entryY=0.5;entryDx=0;entryDy=0;" parent="1" source="D4Uwa5f9jRaThYVNO9h9-4" target="2tXrm1ku4In5ayjomrIE-8" edge="1">
          <mxGeometry relative="1" as="geometry" />
        </mxCell>
        <mxCell id="D4Uwa5f9jRaThYVNO9h9-4" value="" style="rounded=0;whiteSpace=wrap;html=1;" parent="1" vertex="1">
          <mxGeometry x="600" y="150" width="120" height="60" as="geometry" />
        </mxCell>
        <mxCell id="2tXrm1ku4In5ayjomrIE-1" value="" style="rhombus;whiteSpace=wrap;html=1;" parent="1" vertex="1">
          <mxGeometry x="400" y="870" width="80" height="80" as="geometry" />
        </mxCell>
        <mxCell id="2tXrm1ku4In5ayjomrIE-2" value="" style="rhombus;whiteSpace=wrap;html=1;" parent="1" vertex="1">
          <mxGeometry x="170" y="680" width="80" height="80" as="geometry" />
        </mxCell>
        <mxCell id="2tXrm1ku4In5ayjomrIE-3" value="" style="rounded=0;whiteSpace=wrap;html=1;" parent="1" vertex="1">
          <mxGeometry x="600" y="490" width="120" height="60" as="geometry" />
        </mxCell>
        <mxCell id="2tXrm1ku4In5ayjomrIE-8" value="" style="rounded=0;whiteSpace=wrap;html=1;" parent="1" vertex="1">
          <mxGeometry x="160" y="150" width="120" height="60" as="geometry" />
        </mxCell>
        <mxCell id="2tXrm1ku4In5ayjomrIE-9" value="" style="rhombus;whiteSpace=wrap;html=1;" parent="1" vertex="1">
          <mxGeometry x="400" y="480" width="80" height="80" as="geometry" />
        </mxCell>
        <mxCell id="2tXrm1ku4In5ayjomrIE-14" value="&lt;b&gt;Customer&lt;/b&gt;" style="text;html=1;align=center;verticalAlign=middle;whiteSpace=wrap;rounded=0;" parent="1" vertex="1">
          <mxGeometry x="190" y="505" width="60" height="30" as="geometry" />
        </mxCell>
        <mxCell id="2tXrm1ku4In5ayjomrIE-18" value="&lt;b&gt;User&lt;/b&gt;" style="text;html=1;align=center;verticalAlign=middle;whiteSpace=wrap;rounded=0;" parent="1" vertex="1">
          <mxGeometry x="180" y="145" width="60" height="55" as="geometry" />
        </mxCell>
        <mxCell id="2tXrm1ku4In5ayjomrIE-19" value="&lt;b&gt;Admin&lt;/b&gt;" style="text;html=1;align=center;verticalAlign=middle;whiteSpace=wrap;rounded=0;" parent="1" vertex="1">
          <mxGeometry x="630" y="165" width="60" height="30" as="geometry" />
        </mxCell>
        <mxCell id="2tXrm1ku4In5ayjomrIE-20" value="&lt;b&gt;Subscription&lt;/b&gt;" style="text;html=1;align=center;verticalAlign=middle;whiteSpace=wrap;rounded=0;" parent="1" vertex="1">
          <mxGeometry x="630" y="505" width="60" height="30" as="geometry" />
        </mxCell>
        <mxCell id="2tXrm1ku4In5ayjomrIE-21" value="&lt;b&gt;Order&lt;/b&gt;" style="text;html=1;align=center;verticalAlign=middle;whiteSpace=wrap;rounded=0;" parent="1" vertex="1">
          <mxGeometry x="170" y="885" width="60" height="30" as="geometry" />
        </mxCell>
        <mxCell id="2tXrm1ku4In5ayjomrIE-22" value="&lt;b&gt;Product&lt;/b&gt;" style="text;html=1;align=center;verticalAlign=middle;whiteSpace=wrap;rounded=0;" parent="1" vertex="1">
          <mxGeometry x="630" y="885" width="60" height="50" as="geometry" />
        </mxCell>
        <mxCell id="2tXrm1ku4In5ayjomrIE-23" value="&lt;b&gt;Contains&lt;/b&gt;" style="text;html=1;align=center;verticalAlign=middle;whiteSpace=wrap;rounded=0;" parent="1" vertex="1">
          <mxGeometry x="410" y="895" width="60" height="30" as="geometry" />
        </mxCell>
        <mxCell id="2tXrm1ku4In5ayjomrIE-24" value="&lt;b&gt;Makes&lt;/b&gt;" style="text;html=1;align=center;verticalAlign=middle;whiteSpace=wrap;rounded=0;" parent="1" vertex="1">
          <mxGeometry x="180" y="705" width="60" height="30" as="geometry" />
        </mxCell>
        <mxCell id="2tXrm1ku4In5ayjomrIE-28" value="&lt;b&gt;Has-A&lt;/b&gt;" style="text;html=1;align=center;verticalAlign=middle;whiteSpace=wrap;rounded=0;" parent="1" vertex="1">
          <mxGeometry x="410" y="505" width="60" height="30" as="geometry" />
        </mxCell>
        <mxCell id="2tXrm1ku4In5ayjomrIE-34" value="" style="endArrow=none;html=1;rounded=0;exitX=0.5;exitY=0;exitDx=0;exitDy=0;" parent="1" source="D4Uwa5f9jRaThYVNO9h9-2" edge="1">
          <mxGeometry width="50" height="50" relative="1" as="geometry">
            <mxPoint x="160" y="810" as="sourcePoint" />
            <mxPoint x="210" y="760" as="targetPoint" />
          </mxGeometry>
        </mxCell>
        <mxCell id="2tXrm1ku4In5ayjomrIE-35" value="" style="endArrow=none;html=1;rounded=0;exitX=0.5;exitY=0;exitDx=0;exitDy=0;" parent="1" source="2tXrm1ku4In5ayjomrIE-2" edge="1">
          <mxGeometry width="50" height="50" relative="1" as="geometry">
            <mxPoint x="460" y="600" as="sourcePoint" />
            <mxPoint x="210" y="550" as="targetPoint" />
          </mxGeometry>
        </mxCell>
        <mxCell id="2tXrm1ku4In5ayjomrIE-36" value="" style="endArrow=none;html=1;rounded=0;entryX=0;entryY=0.5;entryDx=0;entryDy=0;exitX=1;exitY=0.5;exitDx=0;exitDy=0;" parent="1" source="2tXrm1ku4In5ayjomrIE-9" target="2tXrm1ku4In5ayjomrIE-3" edge="1">
          <mxGeometry width="50" height="50" relative="1" as="geometry">
            <mxPoint x="460" y="600" as="sourcePoint" />
            <mxPoint x="510" y="550" as="targetPoint" />
          </mxGeometry>
        </mxCell>
        <mxCell id="2tXrm1ku4In5ayjomrIE-37" value="" style="endArrow=none;html=1;rounded=0;entryX=0;entryY=0.5;entryDx=0;entryDy=0;exitX=1;exitY=0.5;exitDx=0;exitDy=0;" parent="1" source="D4Uwa5f9jRaThYVNO9h9-1" target="2tXrm1ku4In5ayjomrIE-9" edge="1">
          <mxGeometry width="50" height="50" relative="1" as="geometry">
            <mxPoint x="460" y="600" as="sourcePoint" />
            <mxPoint x="510" y="550" as="targetPoint" />
          </mxGeometry>
        </mxCell>
        <mxCell id="2tXrm1ku4In5ayjomrIE-38" value="" style="endArrow=none;html=1;rounded=0;entryX=0;entryY=0.5;entryDx=0;entryDy=0;exitX=1;exitY=0.5;exitDx=0;exitDy=0;" parent="1" source="2tXrm1ku4In5ayjomrIE-1" target="D4Uwa5f9jRaThYVNO9h9-3" edge="1">
          <mxGeometry width="50" height="50" relative="1" as="geometry">
            <mxPoint x="460" y="600" as="sourcePoint" />
            <mxPoint x="510" y="550" as="targetPoint" />
          </mxGeometry>
        </mxCell>
        <mxCell id="2tXrm1ku4In5ayjomrIE-42" value="" style="endArrow=none;html=1;rounded=0;entryX=0;entryY=0.5;entryDx=0;entryDy=0;exitX=1;exitY=0.75;exitDx=0;exitDy=0;" parent="1" source="D4Uwa5f9jRaThYVNO9h9-2" target="2tXrm1ku4In5ayjomrIE-1" edge="1">
          <mxGeometry width="50" height="50" relative="1" as="geometry">
            <mxPoint x="460" y="600" as="sourcePoint" />
            <mxPoint x="510" y="550" as="targetPoint" />
          </mxGeometry>
        </mxCell>
        <mxCell id="2tXrm1ku4In5ayjomrIE-44" value="" style="ellipse;whiteSpace=wrap;html=1;" parent="1" vertex="1">
          <mxGeometry x="610" y="30" width="100" height="60" as="geometry" />
        </mxCell>
        <mxCell id="2tXrm1ku4In5ayjomrIE-45" value="" style="ellipse;whiteSpace=wrap;html=1;" parent="1" vertex="1">
          <mxGeometry x="730" y="30" width="100" height="60" as="geometry" />
        </mxCell>
        <mxCell id="2tXrm1ku4In5ayjomrIE-46" value="" style="ellipse;whiteSpace=wrap;html=1;" parent="1" vertex="1">
          <mxGeometry x="490" y="30" width="100" height="60" as="geometry" />
        </mxCell>
        <mxCell id="2tXrm1ku4In5ayjomrIE-57" value="" style="endArrow=none;html=1;rounded=0;entryX=0.5;entryY=1;entryDx=0;entryDy=0;exitX=0;exitY=0.25;exitDx=0;exitDy=0;" parent="1" source="D4Uwa5f9jRaThYVNO9h9-4" target="2tXrm1ku4In5ayjomrIE-46" edge="1">
          <mxGeometry width="50" height="50" relative="1" as="geometry">
            <mxPoint x="460" y="600" as="sourcePoint" />
            <mxPoint x="510" y="550" as="targetPoint" />
          </mxGeometry>
        </mxCell>
        <mxCell id="2tXrm1ku4In5ayjomrIE-58" value="" style="endArrow=none;html=1;rounded=0;entryX=0.5;entryY=1;entryDx=0;entryDy=0;exitX=0.5;exitY=0;exitDx=0;exitDy=0;" parent="1" source="D4Uwa5f9jRaThYVNO9h9-4" target="2tXrm1ku4In5ayjomrIE-44" edge="1">
          <mxGeometry width="50" height="50" relative="1" as="geometry">
            <mxPoint x="460" y="600" as="sourcePoint" />
            <mxPoint x="510" y="550" as="targetPoint" />
          </mxGeometry>
        </mxCell>
        <mxCell id="2tXrm1ku4In5ayjomrIE-59" value="" style="endArrow=none;html=1;rounded=0;entryX=0.5;entryY=1;entryDx=0;entryDy=0;" parent="1" target="2tXrm1ku4In5ayjomrIE-45" edge="1">
          <mxGeometry width="50" height="50" relative="1" as="geometry">
            <mxPoint x="720" y="190" as="sourcePoint" />
            <mxPoint x="510" y="550" as="targetPoint" />
          </mxGeometry>
        </mxCell>
        <mxCell id="2tXrm1ku4In5ayjomrIE-60" value="" style="ellipse;whiteSpace=wrap;html=1;" parent="1" vertex="1">
          <mxGeometry x="570" y="600" width="100" height="60" as="geometry" />
        </mxCell>
        <mxCell id="2tXrm1ku4In5ayjomrIE-61" value="" style="ellipse;whiteSpace=wrap;html=1;" parent="1" vertex="1">
          <mxGeometry x="730" y="600" width="100" height="60" as="geometry" />
        </mxCell>
        <mxCell id="2tXrm1ku4In5ayjomrIE-62" value="" style="ellipse;whiteSpace=wrap;html=1;" parent="1" vertex="1">
          <mxGeometry x="730" y="360" width="100" height="60" as="geometry" />
        </mxCell>
        <mxCell id="2tXrm1ku4In5ayjomrIE-63" value="" style="ellipse;whiteSpace=wrap;html=1;" parent="1" vertex="1">
          <mxGeometry x="570" y="360" width="100" height="60" as="geometry" />
        </mxCell>
        <mxCell id="2tXrm1ku4In5ayjomrIE-66" value="" style="endArrow=none;html=1;rounded=0;entryX=0;entryY=0;entryDx=0;entryDy=0;exitX=0.5;exitY=1;exitDx=0;exitDy=0;" parent="1" source="2tXrm1ku4In5ayjomrIE-63" target="2tXrm1ku4In5ayjomrIE-3" edge="1">
          <mxGeometry width="50" height="50" relative="1" as="geometry">
            <mxPoint x="460" y="600" as="sourcePoint" />
            <mxPoint x="510" y="550" as="targetPoint" />
          </mxGeometry>
        </mxCell>
        <mxCell id="2tXrm1ku4In5ayjomrIE-67" value="" style="endArrow=none;html=1;rounded=0;entryX=1;entryY=0;entryDx=0;entryDy=0;exitX=0.5;exitY=1;exitDx=0;exitDy=0;" parent="1" source="2tXrm1ku4In5ayjomrIE-62" target="2tXrm1ku4In5ayjomrIE-3" edge="1">
          <mxGeometry width="50" height="50" relative="1" as="geometry">
            <mxPoint x="460" y="600" as="sourcePoint" />
            <mxPoint x="510" y="550" as="targetPoint" />
          </mxGeometry>
        </mxCell>
        <mxCell id="2tXrm1ku4In5ayjomrIE-68" value="" style="endArrow=none;html=1;rounded=0;entryX=0;entryY=1;entryDx=0;entryDy=0;exitX=0;exitY=0;exitDx=0;exitDy=0;" parent="1" source="2tXrm1ku4In5ayjomrIE-60" target="2tXrm1ku4In5ayjomrIE-3" edge="1">
          <mxGeometry width="50" height="50" relative="1" as="geometry">
            <mxPoint x="460" y="600" as="sourcePoint" />
            <mxPoint x="510" y="550" as="targetPoint" />
          </mxGeometry>
        </mxCell>
        <mxCell id="2tXrm1ku4In5ayjomrIE-72" value="" style="endArrow=none;html=1;rounded=0;entryX=1;entryY=1;entryDx=0;entryDy=0;exitX=0.5;exitY=0;exitDx=0;exitDy=0;" parent="1" source="2tXrm1ku4In5ayjomrIE-61" target="2tXrm1ku4In5ayjomrIE-3" edge="1">
          <mxGeometry width="50" height="50" relative="1" as="geometry">
            <mxPoint x="460" y="600" as="sourcePoint" />
            <mxPoint x="510" y="550" as="targetPoint" />
          </mxGeometry>
        </mxCell>
        <mxCell id="2tXrm1ku4In5ayjomrIE-75" value="" style="ellipse;whiteSpace=wrap;html=1;" parent="1" vertex="1">
          <mxGeometry x="20" y="560" width="100" height="60" as="geometry" />
        </mxCell>
        <mxCell id="2tXrm1ku4In5ayjomrIE-76" value="" style="ellipse;whiteSpace=wrap;html=1;" parent="1" vertex="1">
          <mxGeometry x="20" y="400" width="100" height="60" as="geometry" />
        </mxCell>
        <mxCell id="2tXrm1ku4In5ayjomrIE-78" value="" style="endArrow=none;html=1;rounded=0;exitX=1;exitY=0.5;exitDx=0;exitDy=0;entryX=0;entryY=1;entryDx=0;entryDy=0;" parent="1" source="2tXrm1ku4In5ayjomrIE-75" target="D4Uwa5f9jRaThYVNO9h9-1" edge="1">
          <mxGeometry width="50" height="50" relative="1" as="geometry">
            <mxPoint x="460" y="600" as="sourcePoint" />
            <mxPoint x="510" y="550" as="targetPoint" />
          </mxGeometry>
        </mxCell>
        <mxCell id="2tXrm1ku4In5ayjomrIE-79" value="" style="endArrow=none;html=1;rounded=0;entryX=1;entryY=1;entryDx=0;entryDy=0;exitX=0;exitY=0;exitDx=0;exitDy=0;" parent="1" source="D4Uwa5f9jRaThYVNO9h9-1" target="2tXrm1ku4In5ayjomrIE-76" edge="1">
          <mxGeometry width="50" height="50" relative="1" as="geometry">
            <mxPoint x="460" y="600" as="sourcePoint" />
            <mxPoint x="510" y="550" as="targetPoint" />
          </mxGeometry>
        </mxCell>
        <mxCell id="2tXrm1ku4In5ayjomrIE-81" value="" style="ellipse;whiteSpace=wrap;html=1;" parent="1" vertex="1">
          <mxGeometry x="10" y="250" width="100" height="60" as="geometry" />
        </mxCell>
        <mxCell id="2tXrm1ku4In5ayjomrIE-82" value="" style="ellipse;whiteSpace=wrap;html=1;" parent="1" vertex="1">
          <mxGeometry x="10" y="170" width="100" height="60" as="geometry" />
        </mxCell>
        <mxCell id="2tXrm1ku4In5ayjomrIE-83" value="" style="ellipse;whiteSpace=wrap;html=1;" parent="1" vertex="1">
          <mxGeometry x="10" y="100" width="100" height="60" as="geometry" />
        </mxCell>
        <mxCell id="2tXrm1ku4In5ayjomrIE-84" value="" style="ellipse;whiteSpace=wrap;html=1;" parent="1" vertex="1">
          <mxGeometry x="60" y="20" width="100" height="60" as="geometry" />
        </mxCell>
        <mxCell id="2tXrm1ku4In5ayjomrIE-85" value="" style="ellipse;whiteSpace=wrap;html=1;" parent="1" vertex="1">
          <mxGeometry x="180" y="20" width="100" height="60" as="geometry" />
        </mxCell>
        <mxCell id="2tXrm1ku4In5ayjomrIE-86" value="" style="ellipse;whiteSpace=wrap;html=1;" parent="1" vertex="1">
          <mxGeometry x="300" y="20" width="100" height="60" as="geometry" />
        </mxCell>
        <mxCell id="2tXrm1ku4In5ayjomrIE-88" value="" style="endArrow=none;html=1;rounded=0;entryX=0;entryY=1;entryDx=0;entryDy=0;exitX=1;exitY=0.5;exitDx=0;exitDy=0;" parent="1" source="2tXrm1ku4In5ayjomrIE-81" target="2tXrm1ku4In5ayjomrIE-8" edge="1">
          <mxGeometry width="50" height="50" relative="1" as="geometry">
            <mxPoint x="460" y="600" as="sourcePoint" />
            <mxPoint x="510" y="550" as="targetPoint" />
          </mxGeometry>
        </mxCell>
        <mxCell id="2tXrm1ku4In5ayjomrIE-89" value="" style="endArrow=none;html=1;rounded=0;entryX=0;entryY=0.5;entryDx=0;entryDy=0;exitX=1;exitY=0.5;exitDx=0;exitDy=0;" parent="1" source="2tXrm1ku4In5ayjomrIE-82" target="2tXrm1ku4In5ayjomrIE-8" edge="1">
          <mxGeometry width="50" height="50" relative="1" as="geometry">
            <mxPoint x="460" y="600" as="sourcePoint" />
            <mxPoint x="510" y="550" as="targetPoint" />
          </mxGeometry>
        </mxCell>
        <mxCell id="2tXrm1ku4In5ayjomrIE-90" value="" style="endArrow=none;html=1;rounded=0;entryX=0;entryY=0;entryDx=0;entryDy=0;exitX=1;exitY=0.5;exitDx=0;exitDy=0;" parent="1" source="2tXrm1ku4In5ayjomrIE-83" target="2tXrm1ku4In5ayjomrIE-8" edge="1">
          <mxGeometry width="50" height="50" relative="1" as="geometry">
            <mxPoint x="460" y="600" as="sourcePoint" />
            <mxPoint x="510" y="550" as="targetPoint" />
          </mxGeometry>
        </mxCell>
        <mxCell id="2tXrm1ku4In5ayjomrIE-91" value="" style="endArrow=none;html=1;rounded=0;entryX=0.25;entryY=0;entryDx=0;entryDy=0;exitX=1;exitY=1;exitDx=0;exitDy=0;" parent="1" source="2tXrm1ku4In5ayjomrIE-84" target="2tXrm1ku4In5ayjomrIE-8" edge="1">
          <mxGeometry width="50" height="50" relative="1" as="geometry">
            <mxPoint x="460" y="600" as="sourcePoint" />
            <mxPoint x="510" y="550" as="targetPoint" />
          </mxGeometry>
        </mxCell>
        <mxCell id="2tXrm1ku4In5ayjomrIE-92" value="" style="endArrow=none;html=1;rounded=0;entryX=0.5;entryY=1;entryDx=0;entryDy=0;" parent="1" target="2tXrm1ku4In5ayjomrIE-85" edge="1">
          <mxGeometry width="50" height="50" relative="1" as="geometry">
            <mxPoint x="240" y="150" as="sourcePoint" />
            <mxPoint x="510" y="550" as="targetPoint" />
          </mxGeometry>
        </mxCell>
        <mxCell id="2tXrm1ku4In5ayjomrIE-93" value="" style="endArrow=none;html=1;rounded=0;entryX=0.319;entryY=1.019;entryDx=0;entryDy=0;entryPerimeter=0;exitX=1;exitY=0;exitDx=0;exitDy=0;" parent="1" source="2tXrm1ku4In5ayjomrIE-8" target="2tXrm1ku4In5ayjomrIE-86" edge="1">
          <mxGeometry width="50" height="50" relative="1" as="geometry">
            <mxPoint x="310" y="160" as="sourcePoint" />
            <mxPoint x="360" y="110" as="targetPoint" />
          </mxGeometry>
        </mxCell>
        <mxCell id="2tXrm1ku4In5ayjomrIE-95" value="" style="ellipse;whiteSpace=wrap;html=1;" parent="1" vertex="1">
          <mxGeometry x="740" y="880" width="100" height="60" as="geometry" />
        </mxCell>
        <mxCell id="2tXrm1ku4In5ayjomrIE-96" value="" style="ellipse;whiteSpace=wrap;html=1;" parent="1" vertex="1">
          <mxGeometry x="730" y="1010" width="100" height="60" as="geometry" />
        </mxCell>
        <mxCell id="2tXrm1ku4In5ayjomrIE-97" value="" style="ellipse;whiteSpace=wrap;html=1;" parent="1" vertex="1">
          <mxGeometry x="600" y="1010" width="100" height="60" as="geometry" />
        </mxCell>
        <mxCell id="2tXrm1ku4In5ayjomrIE-98" value="" style="ellipse;whiteSpace=wrap;html=1;" parent="1" vertex="1">
          <mxGeometry x="730" y="760" width="100" height="60" as="geometry" />
        </mxCell>
        <mxCell id="2tXrm1ku4In5ayjomrIE-99" value="" style="ellipse;whiteSpace=wrap;html=1;" parent="1" vertex="1">
          <mxGeometry x="600" y="760" width="100" height="60" as="geometry" />
        </mxCell>
        <mxCell id="2tXrm1ku4In5ayjomrIE-100" value="" style="endArrow=none;html=1;rounded=0;entryX=0;entryY=0.5;entryDx=0;entryDy=0;exitX=1;exitY=0.5;exitDx=0;exitDy=0;" parent="1" source="D4Uwa5f9jRaThYVNO9h9-3" target="2tXrm1ku4In5ayjomrIE-95" edge="1">
          <mxGeometry width="50" height="50" relative="1" as="geometry">
            <mxPoint x="650" y="880" as="sourcePoint" />
            <mxPoint x="700" y="830" as="targetPoint" />
          </mxGeometry>
        </mxCell>
        <mxCell id="2tXrm1ku4In5ayjomrIE-101" value="" style="endArrow=none;html=1;rounded=0;entryX=0.5;entryY=1;entryDx=0;entryDy=0;" parent="1" target="2tXrm1ku4In5ayjomrIE-99" edge="1">
          <mxGeometry width="50" height="50" relative="1" as="geometry">
            <mxPoint x="650" y="880" as="sourcePoint" />
            <mxPoint x="700" y="830" as="targetPoint" />
          </mxGeometry>
        </mxCell>
        <mxCell id="2tXrm1ku4In5ayjomrIE-103" value="" style="endArrow=none;html=1;rounded=0;entryX=0;entryY=1;entryDx=0;entryDy=0;exitX=0.75;exitY=0;exitDx=0;exitDy=0;" parent="1" source="D4Uwa5f9jRaThYVNO9h9-3" target="2tXrm1ku4In5ayjomrIE-98" edge="1">
          <mxGeometry width="50" height="50" relative="1" as="geometry">
            <mxPoint x="650" y="880" as="sourcePoint" />
            <mxPoint x="700" y="830" as="targetPoint" />
          </mxGeometry>
        </mxCell>
        <mxCell id="2tXrm1ku4In5ayjomrIE-104" value="" style="endArrow=none;html=1;rounded=0;entryX=0.5;entryY=0;entryDx=0;entryDy=0;" parent="1" target="2tXrm1ku4In5ayjomrIE-97" edge="1">
          <mxGeometry width="50" height="50" relative="1" as="geometry">
            <mxPoint x="650" y="940" as="sourcePoint" />
            <mxPoint x="700" y="830" as="targetPoint" />
          </mxGeometry>
        </mxCell>
        <mxCell id="2tXrm1ku4In5ayjomrIE-105" value="" style="endArrow=none;html=1;rounded=0;entryX=0;entryY=0;entryDx=0;entryDy=0;exitX=0.75;exitY=1;exitDx=0;exitDy=0;" parent="1" source="D4Uwa5f9jRaThYVNO9h9-3" target="2tXrm1ku4In5ayjomrIE-96" edge="1">
          <mxGeometry width="50" height="50" relative="1" as="geometry">
            <mxPoint x="650" y="880" as="sourcePoint" />
            <mxPoint x="700" y="830" as="targetPoint" />
          </mxGeometry>
        </mxCell>
        <mxCell id="2tXrm1ku4In5ayjomrIE-106" value="" style="ellipse;whiteSpace=wrap;html=1;" parent="1" vertex="1">
          <mxGeometry x="290" y="1010" width="100" height="60" as="geometry" />
        </mxCell>
        <mxCell id="2tXrm1ku4In5ayjomrIE-107" value="" style="ellipse;whiteSpace=wrap;html=1;" parent="1" vertex="1">
          <mxGeometry x="160" y="1010" width="100" height="60" as="geometry" />
        </mxCell>
        <mxCell id="2tXrm1ku4In5ayjomrIE-108" value="" style="ellipse;whiteSpace=wrap;html=1;" parent="1" vertex="1">
          <mxGeometry x="30" y="1010" width="100" height="60" as="geometry" />
        </mxCell>
        <mxCell id="2tXrm1ku4In5ayjomrIE-109" value="" style="ellipse;whiteSpace=wrap;html=1;" parent="1" vertex="1">
          <mxGeometry x="30" y="925" width="100" height="60" as="geometry" />
        </mxCell>
        <mxCell id="2tXrm1ku4In5ayjomrIE-110" value="" style="ellipse;whiteSpace=wrap;html=1;" parent="1" vertex="1">
          <mxGeometry x="30" y="835" width="100" height="60" as="geometry" />
        </mxCell>
        <mxCell id="2tXrm1ku4In5ayjomrIE-111" value="" style="ellipse;whiteSpace=wrap;html=1;" parent="1" vertex="1">
          <mxGeometry x="30" y="750" width="100" height="60" as="geometry" />
        </mxCell>
        <mxCell id="2tXrm1ku4In5ayjomrIE-113" value="" style="endArrow=none;html=1;rounded=0;exitX=0.938;exitY=0.194;exitDx=0;exitDy=0;exitPerimeter=0;entryX=0.25;entryY=1;entryDx=0;entryDy=0;" parent="1" source="2tXrm1ku4In5ayjomrIE-108" target="D4Uwa5f9jRaThYVNO9h9-2" edge="1">
          <mxGeometry width="50" height="50" relative="1" as="geometry">
            <mxPoint x="200" y="980" as="sourcePoint" />
            <mxPoint x="250" y="930" as="targetPoint" />
          </mxGeometry>
        </mxCell>
        <mxCell id="2tXrm1ku4In5ayjomrIE-114" value="" style="endArrow=none;html=1;rounded=0;entryX=0.5;entryY=1;entryDx=0;entryDy=0;exitX=0.5;exitY=0;exitDx=0;exitDy=0;" parent="1" source="2tXrm1ku4In5ayjomrIE-107" target="D4Uwa5f9jRaThYVNO9h9-2" edge="1">
          <mxGeometry width="50" height="50" relative="1" as="geometry">
            <mxPoint x="200" y="980" as="sourcePoint" />
            <mxPoint x="250" y="930" as="targetPoint" />
          </mxGeometry>
        </mxCell>
        <mxCell id="2tXrm1ku4In5ayjomrIE-115" value="" style="endArrow=none;html=1;rounded=0;entryX=0;entryY=0;entryDx=0;entryDy=0;exitX=0.75;exitY=1;exitDx=0;exitDy=0;" parent="1" source="D4Uwa5f9jRaThYVNO9h9-2" target="2tXrm1ku4In5ayjomrIE-106" edge="1">
          <mxGeometry width="50" height="50" relative="1" as="geometry">
            <mxPoint x="200" y="980" as="sourcePoint" />
            <mxPoint x="250" y="930" as="targetPoint" />
          </mxGeometry>
        </mxCell>
        <mxCell id="2tXrm1ku4In5ayjomrIE-116" value="" style="endArrow=none;html=1;rounded=0;entryX=1;entryY=0;entryDx=0;entryDy=0;exitX=0;exitY=0.75;exitDx=0;exitDy=0;" parent="1" source="D4Uwa5f9jRaThYVNO9h9-2" target="2tXrm1ku4In5ayjomrIE-109" edge="1">
          <mxGeometry width="50" height="50" relative="1" as="geometry">
            <mxPoint x="200" y="980" as="sourcePoint" />
            <mxPoint x="250" y="930" as="targetPoint" />
          </mxGeometry>
        </mxCell>
        <mxCell id="2tXrm1ku4In5ayjomrIE-117" value="" style="endArrow=none;html=1;rounded=0;entryX=1;entryY=0.5;entryDx=0;entryDy=0;exitX=0;exitY=0.25;exitDx=0;exitDy=0;" parent="1" source="D4Uwa5f9jRaThYVNO9h9-2" target="2tXrm1ku4In5ayjomrIE-110" edge="1">
          <mxGeometry width="50" height="50" relative="1" as="geometry">
            <mxPoint x="200" y="980" as="sourcePoint" />
            <mxPoint x="250" y="930" as="targetPoint" />
          </mxGeometry>
        </mxCell>
        <mxCell id="2tXrm1ku4In5ayjomrIE-118" value="" style="endArrow=none;html=1;rounded=0;entryX=1;entryY=1;entryDx=0;entryDy=0;exitX=0.25;exitY=0;exitDx=0;exitDy=0;" parent="1" source="D4Uwa5f9jRaThYVNO9h9-2" target="2tXrm1ku4In5ayjomrIE-111" edge="1">
          <mxGeometry width="50" height="50" relative="1" as="geometry">
            <mxPoint x="200" y="980" as="sourcePoint" />
            <mxPoint x="250" y="930" as="targetPoint" />
          </mxGeometry>
        </mxCell>
        <mxCell id="2tXrm1ku4In5ayjomrIE-119" value="&lt;b&gt;adminId&lt;/b&gt;" style="text;html=1;align=center;verticalAlign=middle;whiteSpace=wrap;rounded=0;" parent="1" vertex="1">
          <mxGeometry x="510" y="45" width="60" height="30" as="geometry" />
        </mxCell>
        <mxCell id="2tXrm1ku4In5ayjomrIE-123" value="&lt;b&gt;joiningDate&lt;/b&gt;" style="text;html=1;align=center;verticalAlign=middle;whiteSpace=wrap;rounded=0;" parent="1" vertex="1">
          <mxGeometry x="630" y="50" width="60" height="30" as="geometry" />
        </mxCell>
        <mxCell id="2tXrm1ku4In5ayjomrIE-124" value="&lt;b&gt;dept&lt;/b&gt;" style="text;html=1;align=center;verticalAlign=middle;whiteSpace=wrap;rounded=0;" parent="1" vertex="1">
          <mxGeometry x="750" y="50" width="60" height="30" as="geometry" />
        </mxCell>
        <mxCell id="2tXrm1ku4In5ayjomrIE-125" value="&lt;b&gt;frequency&lt;/b&gt;" style="text;html=1;align=center;verticalAlign=middle;whiteSpace=wrap;rounded=0;" parent="1" vertex="1">
          <mxGeometry x="750" y="615" width="60" height="30" as="geometry" />
        </mxCell>
        <mxCell id="2tXrm1ku4In5ayjomrIE-126" value="&lt;b&gt;status&lt;/b&gt;" style="text;html=1;align=center;verticalAlign=middle;whiteSpace=wrap;rounded=0;" parent="1" vertex="1">
          <mxGeometry x="590" y="615" width="60" height="30" as="geometry" />
        </mxCell>
        <mxCell id="2tXrm1ku4In5ayjomrIE-127" value="&lt;b&gt;endDate&lt;/b&gt;" style="text;html=1;align=center;verticalAlign=middle;whiteSpace=wrap;rounded=0;" parent="1" vertex="1">
          <mxGeometry x="750" y="375" width="60" height="30" as="geometry" />
        </mxCell>
        <mxCell id="2tXrm1ku4In5ayjomrIE-128" value="&lt;b&gt;startDate&lt;/b&gt;" style="text;html=1;align=center;verticalAlign=middle;whiteSpace=wrap;rounded=0;" parent="1" vertex="1">
          <mxGeometry x="590" y="375" width="60" height="30" as="geometry" />
        </mxCell>
        <mxCell id="2tXrm1ku4In5ayjomrIE-132" value="&lt;b&gt;productName&lt;/b&gt;" style="text;html=1;align=center;verticalAlign=middle;whiteSpace=wrap;rounded=0;" parent="1" vertex="1">
          <mxGeometry x="620" y="1025" width="60" height="30" as="geometry" />
        </mxCell>
        <mxCell id="2tXrm1ku4In5ayjomrIE-133" value="&lt;b&gt;price&lt;/b&gt;" style="text;html=1;align=center;verticalAlign=middle;whiteSpace=wrap;rounded=0;" parent="1" vertex="1">
          <mxGeometry x="750" y="1020" width="60" height="30" as="geometry" />
        </mxCell>
        <mxCell id="2tXrm1ku4In5ayjomrIE-134" value="&lt;b&gt;description&lt;/b&gt;&lt;span style=&quot;color: rgba(0, 0, 0, 0); font-family: monospace; font-size: 0px; text-align: start; text-wrap: nowrap;&quot;&gt;%3CmxGraphModel%3E%3Croot%3E%3CmxCell%20id%3D%220%22%2F%3E%3CmxCell%20id%3D%221%22%20parent%3D%220%22%2F%3E%3CmxCell%20id%3D%222%22%20style%3D%22edgeStyle%3DorthogonalEdgeStyle%3Brounded%3D0%3BorthogonalLoop%3D1%3BjettySize%3Dauto%3Bhtml%3D1%3BexitX%3D0.5%3BexitY%3D0%3BexitDx%3D0%3BexitDy%3D0%3B%22%20edge%3D%221%22%20parent%3D%221%22%3E%3CmxGeometry%20relative%3D%221%22%20as%3D%22geometry%22%3E%3CmxPoint%20x%3D%22660%22%20y%3D%22655%22%20as%3D%22sourcePoint%22%2F%3E%3CmxPoint%20x%3D%22780%22%20y%3D%22760%22%20as%3D%22targetPoint%22%2F%3E%3C%2FmxGeometry%3E%3C%2FmxCell%3E%3C%2Froot%3E%3C%2FmxGraphModel%3E&lt;/span&gt;" style="text;html=1;align=center;verticalAlign=middle;whiteSpace=wrap;rounded=0;" parent="1" vertex="1">
          <mxGeometry x="760" y="895" width="60" height="30" as="geometry" />
        </mxCell>
        <mxCell id="2tXrm1ku4In5ayjomrIE-135" value="&lt;b&gt;rating&lt;/b&gt;" style="text;html=1;align=center;verticalAlign=middle;whiteSpace=wrap;rounded=0;" parent="1" vertex="1">
          <mxGeometry x="750" y="775" width="60" height="30" as="geometry" />
        </mxCell>
        <mxCell id="2tXrm1ku4In5ayjomrIE-136" value="&lt;b&gt;productId&lt;/b&gt;" style="text;html=1;align=center;verticalAlign=middle;whiteSpace=wrap;rounded=0;" parent="1" vertex="1">
          <mxGeometry x="620" y="775" width="60" height="30" as="geometry" />
        </mxCell>
        <mxCell id="2tXrm1ku4In5ayjomrIE-139" value="&lt;b&gt;orderId&lt;/b&gt;" style="text;html=1;align=center;verticalAlign=middle;whiteSpace=wrap;rounded=0;" parent="1" vertex="1">
          <mxGeometry x="50" y="765" width="60" height="30" as="geometry" />
        </mxCell>
        <mxCell id="2tXrm1ku4In5ayjomrIE-140" value="&lt;b&gt;customerId&lt;/b&gt;" style="text;html=1;align=center;verticalAlign=middle;whiteSpace=wrap;rounded=0;" parent="1" vertex="1">
          <mxGeometry x="50" y="855" width="60" height="30" as="geometry" />
        </mxCell>
        <mxCell id="2tXrm1ku4In5ayjomrIE-141" value="&lt;b&gt;deliveryDate&lt;/b&gt;" style="text;html=1;align=center;verticalAlign=middle;whiteSpace=wrap;rounded=0;" parent="1" vertex="1">
          <mxGeometry x="180" y="1025" width="60" height="30" as="geometry" />
        </mxCell>
        <mxCell id="2tXrm1ku4In5ayjomrIE-142" value="&lt;b&gt;orderDate&lt;/b&gt;" style="text;html=1;align=center;verticalAlign=middle;whiteSpace=wrap;rounded=0;" parent="1" vertex="1">
          <mxGeometry x="50" y="1020" width="60" height="30" as="geometry" />
        </mxCell>
        <mxCell id="2tXrm1ku4In5ayjomrIE-143" value="&lt;b&gt;productId&lt;/b&gt;" style="text;html=1;align=center;verticalAlign=middle;whiteSpace=wrap;rounded=0;" parent="1" vertex="1">
          <mxGeometry x="50" y="950" width="60" height="30" as="geometry" />
        </mxCell>
        <mxCell id="2tXrm1ku4In5ayjomrIE-146" value="&lt;b&gt;status&lt;/b&gt;" style="text;html=1;align=center;verticalAlign=middle;whiteSpace=wrap;rounded=0;" parent="1" vertex="1">
          <mxGeometry x="310" y="1025" width="60" height="30" as="geometry" />
        </mxCell>
        <mxCell id="2tXrm1ku4In5ayjomrIE-147" value="&lt;b&gt;type&lt;/b&gt;" style="text;html=1;align=center;verticalAlign=middle;whiteSpace=wrap;rounded=0;" parent="1" vertex="1">
          <mxGeometry x="40" y="575" width="60" height="30" as="geometry" />
        </mxCell>
        <mxCell id="2tXrm1ku4In5ayjomrIE-148" value="&lt;b&gt;customerId&lt;/b&gt;" style="text;html=1;align=center;verticalAlign=middle;whiteSpace=wrap;rounded=0;" parent="1" vertex="1">
          <mxGeometry x="40" y="415" width="60" height="30" as="geometry" />
        </mxCell>
        <mxCell id="2tXrm1ku4In5ayjomrIE-149" value="&lt;b&gt;phoneNum&lt;/b&gt;" style="text;html=1;align=center;verticalAlign=middle;whiteSpace=wrap;rounded=0;" parent="1" vertex="1">
          <mxGeometry x="320" y="35" width="60" height="30" as="geometry" />
        </mxCell>
        <mxCell id="2tXrm1ku4In5ayjomrIE-150" value="&lt;b&gt;address&lt;/b&gt;" style="text;html=1;align=center;verticalAlign=middle;whiteSpace=wrap;rounded=0;" parent="1" vertex="1">
          <mxGeometry x="200" y="35" width="60" height="30" as="geometry" />
        </mxCell>
        <mxCell id="2tXrm1ku4In5ayjomrIE-151" value="&lt;b&gt;role&lt;/b&gt;" style="text;html=1;align=center;verticalAlign=middle;whiteSpace=wrap;rounded=0;" parent="1" vertex="1">
          <mxGeometry x="80" y="35" width="60" height="30" as="geometry" />
        </mxCell>
        <mxCell id="2tXrm1ku4In5ayjomrIE-152" value="&lt;b&gt;email&lt;/b&gt;" style="text;html=1;align=center;verticalAlign=middle;whiteSpace=wrap;rounded=0;" parent="1" vertex="1">
          <mxGeometry x="30" y="120" width="60" height="30" as="geometry" />
        </mxCell>
        <mxCell id="2tXrm1ku4In5ayjomrIE-153" value="&lt;b&gt;password&lt;/b&gt;" style="text;html=1;align=center;verticalAlign=middle;whiteSpace=wrap;rounded=0;" parent="1" vertex="1">
          <mxGeometry x="30" y="185" width="60" height="30" as="geometry" />
        </mxCell>
        <mxCell id="2tXrm1ku4In5ayjomrIE-154" value="&lt;b&gt;username&lt;/b&gt;" style="text;html=1;align=center;verticalAlign=middle;whiteSpace=wrap;rounded=0;" parent="1" vertex="1">
          <mxGeometry x="30" y="265" width="60" height="30" as="geometry" />
        </mxCell>
      </root>
    </mxGraphModel>
  </diagram>
</mxfile>
